<?xml version="1.0" encoding="utf-8"?>
<!-- Generator: Adobe Illustrator 21.0.2, SVG Export Plug-In . SVG Version: 6.00 Build 0)  -->
<svg version="1.1" id="Layer_1" xmlns="http://www.w3.org/2000/svg" xmlns:xlink="http://www.w3.org/1999/xlink" x="0px" y="0px"
	 viewBox="0 0 841.9 595.3" style="enable-background:new 0 0 841.9 595.3;" xml:space="preserve">
<style type="text/css">
	.st0{fill:#DC2B35;}
	.st1{fill:#043B53;}
	.st2{fill:#0D0F22;}
	.st3{fill:#677A82;}
	.st4{fill:#29485D;}
	.st5{fill:#A7A9AC;}
</style>
<g id="XMLID_10018_">
	<path id="XMLID_10024_" class="st0" d="M-81.7,260.7c-15.1,0-28.8,7-37.7,17.6v-11.7c0-3.2-2.5-6-5.7-6c-3.5,0-6,2.7-6,6v41.5v2
		v66.1v1.5c0,0,0.2,0.2,0.2,0.5c0,0.3,0,0.5,0.2,0.7c0.7,1.5,2.2,2.7,4,3.2h1.5c1.7,0,3.5-0.7,4.5-2.2c0.7-0.7,1-1.7,1.2-2.7v-1
		v-66.1c0.5-20.6,17.1-37.5,37.7-37.5c20.9,0,37.5,16.9,37.5,37.5v66.1c0,3.5,2.7,6,6,6c3.2,0,6-2.5,6-6v-66.1
		C-32.2,283.1-54.3,260.7-81.7,260.7z"/>
	<path id="XMLID_10023_" class="st1" d="M40.3,272.1c11.7,0,22.6,4,31.3,10.9c2.7,2,6.2,1.2,8.2-1c2.2-2.7,1.7-6.5-0.7-8.2
		c-10.7-8.4-24.3-13.4-38.7-13.4c-34.8,0-62.6,26.8-62.6,60.6c0,34.3,27.8,61.1,62.6,61.1c14.4,0,28.1-5,38.2-12.9
		c3-2.2,3.5-6,1.2-8.7c-2-2.2-5.5-3-8.2-1c-8.7,6.7-19.6,10.7-31.3,10.7c-28.3,0-50.7-21.9-50.7-49.2
		C-10.4,294.2,12,272.1,40.3,272.1z"/>
	<path id="XMLID_10020_" class="st2" d="M194.5,208.3c-3.5,0-6.2,2.7-6.2,6v70c-10.7-14.4-27.6-23.8-46.7-23.8
		c-32.8,0-58.9,27.3-58.9,61.1c0,33.3,26.1,60.6,58.9,60.6c19.1,0,36-9.2,46.7-23.6v17.6c0,3.2,2.7,6,6.2,6c3.2,0,6-2.7,6-6v-54.6
		v-2.5V214.3C200.5,211,197.7,208.3,194.5,208.3z M188.3,323.5c-1,25.8-21.6,46.4-46.7,46.4c-25.6,0-46.7-21.6-46.7-48.4
		c0-27.1,21.1-48.9,46.7-48.9c25.1,0,45.7,20.9,46.7,46.9V323.5z"/>
	<path id="XMLID_10019_" class="st3" d="M287.9,323c-8.4-4.7-17.9-8.2-29.6-9.9h-0.5c-11.2-1.7-19.4-4.7-24.8-8.4
		c-4.7-3.7-7-7.2-7-12.2c0-5,2.7-9.9,7.7-13.9c5.2-4.2,13.2-7,23.1-7c11.9,0,20.9,6.2,29.8,12.2c2.7,1.7,6.5,1,8.2-1.7
		c1.7-2.7,1-6.5-1.7-8.4c-9.4-6-20.6-13.2-36.3-13.2c-12.4,0-22.6,3.2-29.8,8.2c-7.7,5.7-13.2,14.2-13.2,23.8
		c0,9.4,5.5,17.4,13.2,21.9c7,5,16.6,7.5,27.6,9.4l0.5,0.2c11.9,2,20.6,5,25.8,8.9c6.2,5.2,8.4,9.2,8.7,14.9
		c0,5.5-3.2,10.9-9.2,14.9c-5.5,4.5-13.7,7.5-23.1,7.5c-15.4,0-28.8-7.9-37.3-14.2c-2.7-2.2-6.5-1.7-8.4,0.7c-2,2.5-1.7,5.7,0.7,7.9
		c9.9,7.9,25.3,17.1,45,17.4c11.9,0,21.8-3.5,30.3-9.7c8.2-6.2,13.9-14.4,13.9-24.6C301.5,337.7,295.8,328.2,287.9,323z"/>
</g>
<g id="XMLID_9894_">
	<polygon id="XMLID_10017_" class="st3" points="376,309.8 400.7,309.8 400.7,313.6 390.4,313.6 390.4,339.5 386.2,339.5 
		386.2,313.6 376,313.6 	"/>
	<polygon id="XMLID_10016_" class="st3" points="425.6,309.9 429.9,309.9 429.9,339.5 425.6,339.5 425.6,326.6 409,326.6 409,339.5 
		404.8,339.5 404.8,309.9 409,309.9 409,322.7 425.6,322.7 	"/>
	<polygon id="XMLID_10015_" class="st3" points="436.4,309.9 453.2,309.9 453.2,313.6 440.7,313.6 440.7,322.7 452.8,322.7 
		452.8,326.5 440.7,326.5 440.7,335.7 453.6,335.7 453.6,339.4 436.4,339.4 	"/>
	<polygon id="XMLID_10014_" class="st3" points="493.7,309.9 497.8,309.9 497.8,339.5 494.1,339.5 474.3,316.7 474.3,339.5 
		470.3,339.5 470.3,309.9 473.8,309.9 493.7,332.9 	"/>
	<path id="XMLID_10011_" class="st3" d="M513.5,309.7h3l13.3,29.8h-4.3l-3.9-8.8h-12.6l-3.7,8.8h-4.4L513.5,309.7z M519.8,326.9
		l-4.8-10.7l-4.4,10.7H519.8z"/>
	<polygon id="XMLID_10010_" class="st3" points="526.2,309.8 550.9,309.8 550.9,313.6 540.6,313.6 540.6,339.5 536.3,339.5 
		536.3,313.6 526.2,313.6 	"/>
	<rect id="XMLID_10009_" x="555" y="309.9" class="st3" width="4.2" height="29.6"/>
	<path id="XMLID_10006_" class="st3" d="M580.3,309.4c4.6,0,8.4,1.4,11.4,4.3c3,2.9,4.6,6.5,4.6,10.9c0,4.4-1.5,8-4.6,10.8
		c-3.1,2.9-6.9,4.3-11.6,4.3c-4.5,0-8.2-1.4-11.2-4.3c-3-2.9-4.5-6.4-4.5-10.8c0-4.4,1.5-8.1,4.5-11
		C572,310.9,575.8,309.4,580.3,309.4z M580.5,313.5c-3.4,0-6.2,1.1-8.4,3.2c-2.2,2.1-3.3,4.8-3.3,8.1c0,3.2,1.1,5.8,3.3,8
		c2.2,2.1,4.9,3.2,8.2,3.2c3.3,0,6.1-1.1,8.3-3.2c2.2-2.2,3.3-4.9,3.3-8.1c0-3.1-1.1-5.8-3.3-7.9
		C586.4,314.5,583.7,313.5,580.5,313.5z"/>
	<polygon id="XMLID_10005_" class="st3" points="625.1,309.9 629.1,309.9 629.1,339.5 625.5,339.5 605.7,316.7 605.7,339.5 
		601.7,339.5 601.7,309.9 605.1,309.9 625.1,332.9 	"/>
	<path id="XMLID_10002_" class="st3" d="M644.9,309.7h3l13.3,29.8h-4.3l-3.9-8.8h-12.6l-3.7,8.8h-4.4L644.9,309.7z M651.1,326.9
		l-4.8-10.7l-4.4,10.7H651.1z"/>
	<polygon id="XMLID_10001_" class="st3" points="664.4,309.9 668.7,309.9 668.7,335.6 682,335.6 682,339.5 664.4,339.5 	"/>
	<path id="XMLID_10000_" class="st3" d="M723.3,332.6v4.7c-3.1,1.7-6.7,2.5-10.8,2.5c-3.3,0-6.1-0.7-8.4-2c-2.3-1.3-4.1-3.2-5.5-5.5
		c-1.3-2.3-2-4.9-2-7.6c0-4.3,1.5-7.9,4.6-10.9c3.1-2.9,6.9-4.4,11.4-4.4c3.1,0,6.6,0.8,10.4,2.4v4.6c-3.5-2-6.8-3-10.2-3
		c-3.4,0-6.2,1.1-8.5,3.2c-2.2,2.1-3.4,4.8-3.4,8.1c0,3.2,1.1,5.9,3.3,8c2.2,2.1,5,3.1,8.5,3.1C716.4,335.9,719.9,334.8,723.3,332.6
		z"/>
	<path id="XMLID_9997_" class="st3" d="M743.1,309.4c4.6,0,8.4,1.4,11.4,4.3c3,2.9,4.6,6.5,4.6,10.9c0,4.4-1.5,8-4.6,10.8
		c-3.1,2.9-6.9,4.3-11.6,4.3c-4.5,0-8.2-1.4-11.2-4.3c-3-2.9-4.5-6.4-4.5-10.8c0-4.4,1.5-8.1,4.5-11
		C734.7,310.9,738.5,309.4,743.1,309.4z M743.2,313.5c-3.4,0-6.2,1.1-8.4,3.2c-2.2,2.1-3.3,4.8-3.3,8.1c0,3.2,1.1,5.8,3.3,8
		c2.2,2.1,4.9,3.2,8.2,3.2c3.3,0,6.1-1.1,8.3-3.2c2.2-2.2,3.3-4.9,3.3-8.1c0-3.1-1.1-5.8-3.3-7.9
		C749.2,314.5,746.4,313.5,743.2,313.5z"/>
	<polygon id="XMLID_9996_" class="st3" points="787.8,309.9 791.8,309.9 791.8,339.5 788.2,339.5 768.4,316.7 768.4,339.5 
		764.4,339.5 764.4,309.9 767.8,309.9 787.8,332.9 	"/>
	<path id="XMLID_9995_" class="st3" d="M805.5,327.1l-3.2-2c-2-1.2-3.5-2.4-4.3-3.6c-0.9-1.2-1.3-2.6-1.3-4.1c0-2.3,0.8-4.2,2.4-5.7
		c1.6-1.5,3.7-2.2,6.3-2.2c2.5,0,4.7,0.7,6.8,2.1v4.8c-2.1-2.1-4.4-3.1-6.9-3.1c-1.4,0-2.5,0.3-3.4,1c-0.9,0.6-1.3,1.5-1.3,2.5
		c0,0.9,0.3,1.7,1,2.5c0.7,0.8,1.7,1.6,3.2,2.4l3.2,1.9c3.6,2.2,5.4,4.9,5.4,8.2c0,2.4-0.8,4.3-2.4,5.8c-1.6,1.5-3.7,2.2-6.2,2.2
		c-2.9,0-5.6-0.9-8-2.7v-5.4c2.3,2.9,4.9,4.4,7.9,4.4c1.3,0,2.4-0.4,3.3-1.1c0.9-0.7,1.3-1.7,1.3-2.8
		C809.4,330.4,808.1,328.7,805.5,327.1z"/>
	<path id="XMLID_9992_" class="st3" d="M832.6,309.4c4.6,0,8.4,1.4,11.4,4.3c3,2.9,4.6,6.5,4.6,10.9c0,4.4-1.5,8-4.6,10.8
		c-3.1,2.9-6.9,4.3-11.6,4.3c-4.5,0-8.2-1.4-11.2-4.3c-3-2.9-4.5-6.4-4.5-10.8c0-4.4,1.5-8.1,4.5-11
		C824.2,310.9,828,309.4,832.6,309.4z M832.8,313.5c-3.4,0-6.2,1.1-8.4,3.2c-2.2,2.1-3.3,4.8-3.3,8.1c0,3.2,1.1,5.8,3.3,8
		c2.2,2.1,4.9,3.2,8.2,3.2c3.3,0,6.1-1.1,8.3-3.2c2.2-2.2,3.3-4.9,3.3-8.1c0-3.1-1.1-5.8-3.3-7.9C838.7,314.5,836,313.5,832.8,313.5
		z"/>
	<path id="XMLID_9989_" class="st3" d="M853.9,339.5v-29.6h7.4c3,0,5.4,0.7,7.1,2.2c1.8,1.5,2.6,3.5,2.6,6c0,1.7-0.4,3.2-1.3,4.5
		c-0.9,1.3-2.1,2.2-3.7,2.8c0.9,0.6,1.9,1.5,2.8,2.5c0.9,1.1,2.2,2.9,3.8,5.6c1,1.7,1.9,2.9,2.5,3.8l1.6,2.1h-5l-1.3-2
		c0-0.1-0.1-0.2-0.3-0.4l-0.8-1.2l-1.3-2.2l-1.4-2.3c-0.9-1.2-1.7-2.2-2.4-2.9c-0.7-0.7-1.4-1.2-2-1.6c-0.6-0.3-1.6-0.5-3-0.5h-1.1
		v12.9H853.9z M859.5,313.5h-1.3v9.4h1.6c2.1,0,3.6-0.2,4.4-0.6c0.8-0.4,1.4-0.9,1.9-1.7c0.4-0.7,0.7-1.6,0.7-2.5
		c0-0.9-0.2-1.8-0.7-2.5c-0.5-0.8-1.2-1.3-2.1-1.6C863,313.6,861.5,313.5,859.5,313.5z"/>
	<polygon id="XMLID_9988_" class="st3" points="873.6,309.8 898.4,309.8 898.4,313.6 888,313.6 888,339.5 883.8,339.5 883.8,313.6 
		873.6,313.6 	"/>
	<rect id="XMLID_9987_" x="902.4" y="309.9" class="st3" width="4.2" height="29.6"/>
	<path id="XMLID_9986_" class="st3" d="M933.8,309.9h4.3v16.8c0,2.3-0.2,4-0.5,5.2c-0.3,1.2-0.7,2.1-1.2,2.9
		c-0.5,0.8-1.1,1.5-1.8,2.1c-2.3,2-5.4,3-9.2,3c-3.9,0-7-1-9.3-3c-0.7-0.6-1.3-1.3-1.8-2.1c-0.5-0.8-0.9-1.7-1.2-2.8
		c-0.3-1.1-0.5-2.9-0.5-5.3v-16.8h4.3v16.8c0,2.8,0.3,4.7,1,5.8c0.6,1.1,1.6,2,2.9,2.6c1.3,0.7,2.8,1,4.6,1c2.5,0,4.6-0.7,6.1-2
		c0.8-0.7,1.4-1.5,1.8-2.5c0.4-1,0.6-2.6,0.6-4.9V309.9z"/>
	<polygon id="XMLID_9985_" class="st3" points="967.5,309.9 971.5,309.9 971.5,339.5 967.2,339.5 967.2,316.4 958.1,327.9 
		957.3,327.9 948.1,316.4 948.1,339.5 943.9,339.5 943.9,309.9 947.9,309.9 957.7,322 	"/>
</g>
<path id="XMLID_9984_" class="st4" d="M388.5,371H385v12.7h-3V371h-3v-2.5h3v-3.2c0-0.9,0.1-1.7,0.3-2.5c0.2-0.8,0.5-1.4,1-2
	c0.5-0.6,1-1,1.8-1.3c0.7-0.3,1.6-0.5,2.6-0.5c0.7,0,1.4,0.1,1.9,0.2l-0.4,2.6c-0.2-0.1-0.5-0.1-0.7-0.2c-0.2,0-0.5-0.1-0.8-0.1
	c-0.6,0-1,0.1-1.4,0.3c-0.3,0.2-0.6,0.5-0.8,0.8c-0.2,0.3-0.3,0.7-0.4,1.2c-0.1,0.4-0.1,0.9-0.1,1.4v3.2h3.5V371z"/>
<path id="XMLID_9981_" class="st4" d="M406.7,376.1c0,1.2-0.2,2.3-0.6,3.2c-0.4,1-1,1.8-1.7,2.6c-0.7,0.7-1.6,1.3-2.6,1.7
	c-1,0.4-2.1,0.6-3.2,0.6c-1.2,0-2.2-0.2-3.2-0.6c-1-0.4-1.9-0.9-2.6-1.7c-0.7-0.7-1.3-1.6-1.7-2.6c-0.4-1-0.6-2.1-0.6-3.2
	c0-1.2,0.2-2.3,0.6-3.2c0.4-1,1-1.8,1.7-2.5c0.7-0.7,1.6-1.3,2.6-1.7c1-0.4,2.1-0.6,3.2-0.6c1.2,0,2.2,0.2,3.2,0.6
	c1,0.4,1.9,0.9,2.6,1.7c0.7,0.7,1.3,1.5,1.7,2.5C406.5,373.8,406.7,374.9,406.7,376.1z M403.5,376.1c0-0.7-0.1-1.4-0.3-2.1
	c-0.2-0.7-0.6-1.2-1-1.7c-0.4-0.5-1-0.9-1.6-1.2c-0.6-0.3-1.4-0.5-2.2-0.5c-0.8,0-1.5,0.1-2.2,0.5c-0.6,0.3-1.2,0.7-1.6,1.2
	c-0.4,0.5-0.8,1.1-1,1.7c-0.2,0.7-0.3,1.4-0.3,2.1c0,0.7,0.1,1.4,0.3,2.1c0.2,0.7,0.6,1.2,1,1.8c0.4,0.5,1,0.9,1.6,1.2
	c0.6,0.3,1.4,0.4,2.2,0.4c0.8,0,1.5-0.1,2.2-0.4c0.6-0.3,1.2-0.7,1.6-1.2c0.4-0.5,0.8-1.1,1-1.8
	C403.4,377.5,403.5,376.8,403.5,376.1z"/>
<path id="XMLID_9980_" class="st4" d="M410.8,370.2c0-0.6-0.1-1.2-0.1-1.7h2.9c0,0.4,0.1,0.8,0.1,1.3c0,0.5,0,0.9,0,1.2h0.1
	c0.4-0.9,1.1-1.6,1.9-2.2c0.8-0.5,1.7-0.8,2.8-0.8c0.5,0,0.9,0,1.2,0.1l-0.1,2.8c-0.4-0.1-0.9-0.2-1.4-0.2c-0.7,0-1.4,0.1-1.9,0.4
	c-0.5,0.3-1,0.6-1.3,1.1c-0.4,0.4-0.6,1-0.8,1.6c-0.2,0.6-0.3,1.2-0.3,1.8v8h-3v-11.9C410.9,371.4,410.8,370.9,410.8,370.2z"/>
<path id="XMLID_9977_" class="st4" d="M434.2,383.7v-29.4h9.9c4,0,7.2,0.6,9.5,1.8c2.3,1.2,4.2,3,5.6,5.3c1.4,2.3,2.1,4.9,2.1,7.6
	c0,2-0.4,3.8-1.1,5.6c-0.8,1.8-1.8,3.4-3.2,4.7c-1.4,1.4-3.1,2.5-5,3.2c-1.1,0.4-2.1,0.7-3,0.9c-0.9,0.1-2.7,0.2-5.3,0.2H434.2z
	 M443.7,358.1h-5.3v21.9h5.4c2.1,0,3.7-0.1,4.9-0.4c1.2-0.3,2.1-0.7,2.9-1.1c0.8-0.4,1.5-1,2.1-1.6c2.1-2.1,3.1-4.8,3.1-8
	c0-3.2-1.1-5.7-3.2-7.7c-0.8-0.7-1.7-1.4-2.7-1.8c-1-0.5-2-0.8-2.9-0.9C447.2,358.1,445.7,358.1,443.7,358.1z"/>
<path id="XMLID_9974_" class="st4" d="M473.5,354.2h3l13.2,29.6h-4.3l-3.9-8.7h-12.5l-3.7,8.7h-4.3L473.5,354.2z M479.7,371.3
	l-4.7-10.6l-4.4,10.6H479.7z"/>
<polygon id="XMLID_9973_" class="st4" points="486,354.3 510.6,354.3 510.6,358 500.4,358 500.4,383.7 496.1,383.7 496.1,358 
	486,358 "/>
<path id="XMLID_9970_" class="st4" d="M519.7,354.2h3l13.2,29.6h-4.3l-3.9-8.7H515l-3.7,8.7H507L519.7,354.2z M525.8,371.3
	l-4.7-10.6l-4.4,10.6H525.8z"/>
<path id="XMLID_9969_" class="st4" d="M558.3,371.4l-3.2-1.9c-2-1.2-3.4-2.4-4.3-3.6c-0.8-1.2-1.3-2.5-1.3-4.1
	c0-2.3,0.8-4.2,2.4-5.6c1.6-1.4,3.7-2.2,6.3-2.2c2.5,0,4.7,0.7,6.8,2.1v4.8c-2.1-2-4.4-3.1-6.8-3.1c-1.4,0-2.5,0.3-3.4,1
	c-0.9,0.6-1.3,1.4-1.3,2.4c0,0.9,0.3,1.7,1,2.5c0.7,0.8,1.7,1.6,3.1,2.4l3.2,1.9c3.6,2.1,5.4,4.9,5.4,8.2c0,2.4-0.8,4.3-2.4,5.7
	c-1.6,1.5-3.6,2.2-6.2,2.2c-2.9,0-5.5-0.9-7.9-2.7V376c2.3,2.9,4.9,4.3,7.9,4.3c1.3,0,2.4-0.4,3.3-1.1c0.9-0.7,1.3-1.7,1.3-2.8
	C562.1,374.7,560.8,373,558.3,371.4z"/>
<path id="XMLID_9968_" class="st4" d="M596.1,376.9v4.6c-3.1,1.7-6.6,2.5-10.7,2.5c-3.3,0-6.1-0.7-8.3-2c-2.3-1.3-4.1-3.1-5.4-5.5
	c-1.3-2.3-2-4.8-2-7.5c0-4.3,1.5-7.9,4.6-10.8c3.1-2.9,6.8-4.4,11.3-4.4c3.1,0,6.5,0.8,10.3,2.4v4.5c-3.4-2-6.8-2.9-10.1-2.9
	c-3.4,0-6.2,1.1-8.4,3.2c-2.2,2.1-3.3,4.8-3.3,8c0,3.2,1.1,5.9,3.3,8c2.2,2.1,5,3.1,8.4,3.1C589.2,380.2,592.7,379.1,596.1,376.9z"
	/>
<rect id="XMLID_9967_" x="601.3" y="354.3" class="st4" width="4.2" height="29.4"/>
<polygon id="XMLID_9966_" class="st4" points="612,354.3 628.7,354.3 628.7,358.1 616.2,358.1 616.2,367 628.3,367 628.3,370.8 
	616.2,370.8 616.2,379.9 629.1,379.9 629.1,383.7 612,383.7 "/>
<polygon id="XMLID_9965_" class="st4" points="656.9,354.3 660.9,354.3 660.9,383.7 657.3,383.7 637.6,361.1 637.6,383.7 
	633.7,383.7 633.7,354.3 637.1,354.3 656.9,377.2 "/>
<path id="XMLID_9964_" class="st4" d="M692.5,376.9v4.6c-3.1,1.7-6.6,2.5-10.7,2.5c-3.3,0-6.1-0.7-8.4-2c-2.3-1.3-4.1-3.1-5.4-5.5
	c-1.3-2.3-2-4.8-2-7.5c0-4.3,1.5-7.9,4.6-10.8c3.1-2.9,6.8-4.4,11.3-4.4c3.1,0,6.5,0.8,10.3,2.4v4.5c-3.4-2-6.8-2.9-10.1-2.9
	c-3.4,0-6.2,1.1-8.4,3.2c-2.2,2.1-3.3,4.8-3.3,8c0,3.2,1.1,5.9,3.3,8c2.2,2.1,5,3.1,8.4,3.1C685.7,380.2,689.1,379.1,692.5,376.9z"
	/>
<polygon id="XMLID_9963_" class="st4" points="697.7,354.3 714.4,354.3 714.4,358.1 701.9,358.1 701.9,367 714,367 714,370.8 
	701.9,370.8 701.9,379.9 714.8,379.9 714.8,383.7 697.7,383.7 "/>
<rect id="XMLID_9924_" x="339.3" y="183.1" class="st5" width="0.9" height="228.5"/>
</svg>
